<?xml version="1.0" standalone="no"?>
<!DOCTYPE svg PUBLIC "-//W3C//DTD SVG 20010904//EN"
 "http://www.w3.org/TR/2001/REC-SVG-20010904/DTD/svg10.dtd">
<svg version="1.0" xmlns="http://www.w3.org/2000/svg"
 width="400.000000pt" height="400.000000pt" viewBox="0 0 400.000000 400.000000"
 preserveAspectRatio="xMidYMid meet">
<metadata>
Created by potrace 1.16, written by Peter Selinger 2001-2019
</metadata>
<g transform="translate(0.000000,400.000000) scale(0.013333,-0.012590)"
fill="#000000" stroke="none">
<path d="M15739 31653 c-166 -204 -345 -401 -573 -628 -654 -652 -1289 -1122
-1971 -1460 -508 -251 -931 -386 -1450 -462 -169 -25 -563 -24 -730 0 -639 95
-1235 417 -1683 911 -39 44 -74 78 -76 75 -6 -7 77 -342 123 -499 109 -365
235 -607 402 -772 43 -43 72 -78 65 -78 -26 0 -340 51 -441 71 -457 92 -734
215 -1344 595 -73 46 -135 84 -137 84 -8 0 -3 -62 12 -141 37 -201 162 -508
296 -734 160 -268 462 -643 583 -723 l45 -30 -28 -5 c-15 -4 -108 -25 -207
-47 -375 -85 -655 -136 -995 -181 -241 -32 -572 -33 -721 -2 -302 64 -676 216
-1003 407 -71 42 -131 74 -133 72 -7 -7 26 -186 52 -281 95 -347 258 -584 552
-804 35 -25 63 -53 63 -61 0 -29 -99 -167 -168 -234 -107 -105 -224 -179 -332
-210 -62 -18 -287 -36 -370 -30 -182 14 -312 26 -364 35 -32 6 -60 8 -63 5
-10 -9 292 -284 463 -421 130 -105 292 -217 391 -271 264 -144 624 -255 1200
-370 12 -2 72 -61 134 -131 180 -205 393 -411 494 -480 151 -102 367 -203 561
-263 107 -33 252 -66 259 -58 3 3 -38 76 -90 164 -108 179 -214 383 -251 482
-64 167 -103 432 -83 556 13 80 49 158 85 183 181 129 667 14 1197 -283 272
-153 540 -259 1088 -428 63 -20 121 -36 127 -36 8 0 6 12 -7 38 -51 100 -173
389 -204 482 -46 136 -53 203 -33 304 31 159 151 338 282 422 121 78 394 159
685 204 286 44 819 62 1214 41 940 -50 1910 -209 2890 -473 830 -223 1849
-571 2708 -925 114 -47 210 -84 211 -82 2 2 -41 101 -96 219 -136 295 -301
669 -393 890 -123 297 -204 447 -368 680 -150 214 -380 500 -570 710 -47 52
-83 98 -81 102 8 12 326 10 429 -3 152 -19 426 -112 760 -258 76 -34 143 -60
148 -58 12 4 -90 197 -168 317 -151 235 -320 444 -535 664 -368 378 -633 559
-1357 926 l-241 123 86 54 c170 107 261 195 362 348 178 273 298 685 317 1090
l6 140 -63 -80 c-202 -254 -375 -447 -515 -573 -130 -118 -332 -205 -538 -232
-46 -6 -102 -10 -124 -8 l-41 3 39 65 c104 169 218 428 258 585 11 44 27 134
36 200 26 200 45 685 27 685 -4 0 -51 -53 -103 -117z m-2084 -3263 c250 -27
546 -82 755 -140 63 -18 132 -37 154 -43 53 -14 30 -23 -79 -31 -233 -18 -686
-68 -775 -86 -171 -35 -168 -33 -201 -123 -139 -384 -463 -578 -924 -552 -163
9 -434 47 -601 85 -147 34 -448 130 -549 175 l-60 27 50 44 c76 68 298 232
407 302 336 213 601 304 993 342 61 5 126 12 145 14 67 8 585 -3 685 -14z"/>
<path d="M16740 29486 c0 -2 44 -30 98 -61 361 -215 811 -548 1083 -802 346
-324 546 -594 745 -1008 104 -216 284 -670 284 -716 0 -5 -35 8 -77 30 -161
80 -409 193 -541 245 -163 64 -673 238 -680 232 -2 -3 9 -20 24 -39 289 -339
470 -574 621 -804 113 -172 185 -313 246 -483 96 -266 271 -690 384 -930 l50
-105 139 -59 c173 -74 598 -286 804 -401 1317 -737 2552 -1781 3485 -2945
1701 -2125 2566 -4717 2565 -7687 0 -450 -17 -762 -61 -1118 -183 -1499 -746
-2983 -1657 -4375 -786 -1200 -1834 -2283 -3022 -3122 -2044 -1442 -4460
-2171 -7045 -2124 -1981 36 -3710 439 -5270 1226 -858 434 -1585 929 -2345
1598 -187 164 -739 714 -906 902 -783 882 -1392 1774 -1946 2850 -527 1023
-965 2202 -1173 3158 -66 305 -92 511 -102 827 -10 306 20 523 107 785 102
308 201 490 538 992 69 103 124 190 121 192 -2 2 -81 -43 -176 -100 -479 -288
-855 -485 -879 -461 -3 2 -9 101 -14 218 -34 757 101 1614 385 2449 624 1831
1936 3538 3650 4747 839 591 1796 1072 2765 1388 546 177 1105 311 1671 400
853 133 1775 164 2674 90 1054 -88 2169 -325 3120 -665 1864 -665 3342 -1744
4412 -3220 721 -996 1252 -2202 1457 -3314 14 -77 25 -141 23 -142 -2 -2 -46
15 -99 36 -196 81 -255 92 -514 97 -181 4 -255 2 -342 -11 -174 -26 -173 -23
-41 -94 302 -164 612 -465 813 -787 172 -278 310 -674 361 -1041 56 -404 45
-1074 -26 -1679 -228 -1930 -1108 -3514 -2595 -4670 -1316 -1025 -3113 -1674
-5044 -1824 -445 -35 -797 -44 -1191 -31 -711 22 -1309 93 -1919 228 -118 26
-206 48 -195 49 39 4 613 43 805 54 325 19 862 24 1523 16 346 -5 631 -6 634
-3 4 3 -6 72 -20 153 -76 425 -92 853 -41 1145 70 411 310 757 694 1003 234
150 624 284 905 311 102 10 110 18 45 47 -30 14 -95 44 -145 67 -300 141 -675
264 -930 306 -427 70 -1165 -100 -2000 -459 -234 -101 -360 -160 -954 -449
-867 -422 -1126 -530 -1511 -633 -192 -51 -232 -59 -452 -85 -499 -60 -879
-46 -1254 45 -380 93 -703 259 -1019 525 -443 372 -922 990 -1324 1710 l-93
165 7 -89 c27 -371 177 -1002 371 -1561 502 -1450 1392 -2839 2584 -4036 374
-375 770 -685 1215 -951 914 -546 1965 -871 3175 -982 574 -53 1295 -45 1885
20 283 31 592 82 578 94 -4 4 -42 22 -83 40 -145 62 -576 279 -700 352 -232
136 -375 249 -461 363 -61 81 -171 272 -262 457 -71 144 -241 532 -299 682
l-15 39 -209 -2 c-307 -3 -523 18 -826 80 -338 68 -716 198 -964 329 -180 95
-579 374 -724 507 -18 16 -24 18 265 -75 798 -257 1426 -388 2156 -449 288
-24 987 -24 1259 0 580 51 1076 134 1615 272 1276 325 2339 814 3246 1491 451
337 684 547 1402 1265 734 735 870 861 1105 1026 331 232 733 418 1111 513 23
6 41 13 38 16 -2 2 -64 0 -138 -6 -236 -18 -414 -11 -534 21 -26 7 -56 27 -87
59 -63 65 -90 153 -90 290 1 188 49 358 182 645 269 579 511 1350 651 2075
200 1035 243 2184 118 3115 -37 276 -78 474 -190 920 -71 281 -80 334 -86 545
-10 337 36 698 139 1105 22 88 43 174 45 190 l4 30 -22 -35 c-184 -287 -268
-402 -364 -501 -70 -72 -96 -86 -118 -60 -8 9 -52 111 -100 226 -121 297 -192
453 -342 750 -724 1430 -1762 2688 -3029 3671 -1018 789 -2169 1392 -3476
1823 -1083 356 -2163 570 -3325 657 -276 21 -1051 30 -1313 15 -333 -19 -628
-56 -761 -96 -69 -21 -141 -87 -172 -158 -28 -64 -37 -207 -20 -300 7 -34 42
-161 78 -282 127 -423 140 -470 137 -474 -7 -8 -451 43 -644 75 -280 46 -525
131 -1055 364 -397 174 -532 220 -652 220 -187 0 -193 -112 -31 -609 33 -102
96 -282 139 -400 44 -118 79 -218 79 -223 0 -12 -35 -10 -235 17 -311 42 -569
100 -719 160 -179 72 -407 248 -719 554 l-187 185 -58 -24 c-89 -36 -592 -283
-747 -367 -1358 -738 -2627 -1758 -3599 -2892 -1510 -1762 -2366 -3805 -2560
-6111 -32 -375 -39 -614 -33 -1128 7 -624 28 -931 108 -1567 458 -3660 1841
-6699 4098 -9008 920 -940 1976 -1743 3166 -2407 254 -141 851 -439 1105 -552
1564 -692 3111 -1084 4785 -1214 453 -35 1454 -30 2120 12 3601 223 6755 1407
9290 3488 1418 1164 2627 2609 3532 4221 970 1729 1581 3615 1747 5395 38 405
41 492 41 1270 -1 832 -9 1067 -61 1690 -275 3331 -1381 6133 -3298 8355 -414
479 -958 1018 -1451 1436 -1678 1421 -3745 2486 -6080 3133 -735 203 -1489
360 -2129 441 -195 25 -236 28 -236 21z"/>
<path d="M12075 24269 c-289 -10 -453 -26 -479 -47 -12 -9 -128 -106 -257
-215 l-236 -198 14 -52 c29 -107 -9 -235 -90 -301 -111 -90 -219 -120 -427
-121 -163 0 -224 9 -399 62 -224 67 -539 228 -783 400 l-78 54 0 -35 c0 -43
50 -238 83 -326 103 -268 248 -497 447 -704 157 -163 309 -268 451 -311 l56
-18 6 -191 c8 -278 50 -492 127 -649 50 -103 162 -240 355 -433 142 -143 335
-318 341 -311 2 2 -9 33 -26 70 -65 145 -97 329 -87 511 24 443 246 863 691
1311 270 271 527 473 906 711 337 212 869 469 1230 594 101 36 106 38 99 44
-16 16 -703 98 -1094 130 -345 28 -567 35 -850 25z"/>
</g>
</svg>
